# xmcd CD database file
#
# Track frame offsets:
#	150
#	14326
#	30075
#	44231
#	59411
#	77910
#	92219
#	109261
#	125909
#	149576
#	165194
#	180027
#	196244
#
# Disc length: 2836 seconds
#
# Revision: 0
# Processed by: cddbd v1.5.2PL0 Copyright (c) Steve Scherf et al.
# Submitted via: CDex 1.51
#
DISCID=ac0b120d
DTITLE=Compagnie Créole - En Bonne Compagnie
DYEAR=2013
DGENRE=Ambiance
TTITLE0=C'est Bon Pour Le Moral (Ft. Moussier Tombola)
TTITLE1=Le Bal Masqué (Ft. Colonel Reyel and Lynnsha)
TTITLE2=Ça Fait Rire Les Oiseaux (Ft. Patrick Sébastien)
TTITLE3=Bons Baisers De Fort De France (Ft. Les Petits Chanteurs D'asnières)
TTITLE4=Avancé Pa Tchile (Zumba Zook)(Inédit)
TTITLE5=Vive Le Douanier Rousseau (Ft. Hughes Aufray)
TTITLE6=La Bonne Aventure (Ft. Thierry Cham)
TTITLE7=Ça Ira Mieux (Inédit)
TTITLE8=Ma Première Biguine Party (Ft. Perle Lama and Johanna Bringtown)
TTITLE9=La Machine À Danser (Ft. Matt Houston)
TTITLE10=Aie A Moun La (Ft. Yves Larock)
TTITLE11=La Loi Bon Dié (Inédit)
TTITLE12=Tiembe Raid En La Vi A (Ft. Philippe Martely De Kassav)
EXTD=YEAR: 2013
EXTT0=
EXTT1=
EXTT2=
EXTT3=
EXTT4=
EXTT5=
EXTT6=
EXTT7=
EXTT8=
EXTT9=
EXTT10=
EXTT11=
EXTT12=
PLAYORDER=
